<mxfile host="app.diagrams.net" agent="Mozilla/5.0 (Windows NT 10.0; Win64; x64) AppleWebKit/537.36 (KHTML, like Gecko) Chrome/131.0.0.0 Safari/537.36" version="26.0.4">
  <diagram name="Pagina-1" id="WfYmTDxsIypBRaNh6PMq">
    <mxGraphModel dx="1050" dy="530" grid="1" gridSize="10" guides="1" tooltips="1" connect="1" arrows="1" fold="1" page="1" pageScale="1" pageWidth="827" pageHeight="1169" math="0" shadow="0">
      <root>
        <mxCell id="0" />
        <mxCell id="1" parent="0" />
        <mxCell id="B5OcWi0yJrwhyrI1Mu2D-1" value="&lt;b&gt;&lt;font style=&quot;font-size: 18px;&quot;&gt;MCU&amp;nbsp;&lt;/font&gt;&lt;/b&gt;&lt;div&gt;(IC: integrated circuit)&lt;/div&gt;" style="rounded=0;whiteSpace=wrap;html=1;fillColor=#CBFDFF;shadow=1;strokeColor=#FFFFFF;" parent="1" vertex="1">
          <mxGeometry x="200" y="40" width="134" height="60" as="geometry" />
        </mxCell>
        <mxCell id="B5OcWi0yJrwhyrI1Mu2D-3" value="Memoria dati&lt;div&gt;RAM, EEPROM&lt;/div&gt;" style="rounded=0;whiteSpace=wrap;html=1;fillColor=#FFD966;strokeColor=#FFFFFF;" parent="1" vertex="1">
          <mxGeometry x="230" y="175" width="100" height="85" as="geometry" />
        </mxCell>
        <mxCell id="B5OcWi0yJrwhyrI1Mu2D-4" value="UnitÃ  di elaborazione&amp;nbsp;&lt;div&gt;CPU&amp;nbsp;&lt;/div&gt;&lt;div&gt;1/+ CORE&lt;/div&gt;" style="rounded=0;whiteSpace=wrap;html=1;fillColor=#97D077;strokeColor=#FFFFFF;" parent="1" vertex="1">
          <mxGeometry x="10" y="175" width="100" height="85" as="geometry" />
        </mxCell>
        <mxCell id="B5OcWi0yJrwhyrI1Mu2D-5" value="Memoria di programma&lt;div&gt;ROM, EPROM, FLASH&lt;/div&gt;" style="rounded=0;whiteSpace=wrap;html=1;fillColor=#A680B8;strokeColor=#FFFFFF;" parent="1" vertex="1">
          <mxGeometry x="120" y="175" width="100" height="85" as="geometry" />
        </mxCell>
        <mxCell id="B5OcWi0yJrwhyrI1Mu2D-8" value="" style="endArrow=none;html=1;rounded=0;entryX=0.5;entryY=1;entryDx=0;entryDy=0;" parent="1" target="B5OcWi0yJrwhyrI1Mu2D-1" edge="1">
          <mxGeometry width="50" height="50" relative="1" as="geometry">
            <mxPoint x="267" y="150" as="sourcePoint" />
            <mxPoint x="440" y="250" as="targetPoint" />
            <Array as="points">
              <mxPoint x="267" y="130" />
            </Array>
          </mxGeometry>
        </mxCell>
        <mxCell id="B5OcWi0yJrwhyrI1Mu2D-10" value="" style="endArrow=none;html=1;rounded=0;" parent="1" edge="1">
          <mxGeometry width="50" height="50" relative="1" as="geometry">
            <mxPoint x="60" y="150" as="sourcePoint" />
            <mxPoint x="740" y="150" as="targetPoint" />
          </mxGeometry>
        </mxCell>
        <mxCell id="B5OcWi0yJrwhyrI1Mu2D-11" value="" style="endArrow=classic;html=1;rounded=0;entryX=0.5;entryY=0;entryDx=0;entryDy=0;" parent="1" target="B5OcWi0yJrwhyrI1Mu2D-4" edge="1">
          <mxGeometry width="50" height="50" relative="1" as="geometry">
            <mxPoint x="60" y="150" as="sourcePoint" />
            <mxPoint x="440" y="250" as="targetPoint" />
          </mxGeometry>
        </mxCell>
        <mxCell id="B5OcWi0yJrwhyrI1Mu2D-12" value="" style="endArrow=classic;html=1;rounded=0;entryX=0.5;entryY=0.059;entryDx=0;entryDy=0;entryPerimeter=0;" parent="1" edge="1" target="B5OcWi0yJrwhyrI1Mu2D-5">
          <mxGeometry width="50" height="50" relative="1" as="geometry">
            <mxPoint x="170" y="150" as="sourcePoint" />
            <mxPoint x="170" y="170" as="targetPoint" />
          </mxGeometry>
        </mxCell>
        <mxCell id="B5OcWi0yJrwhyrI1Mu2D-13" value="" style="endArrow=classic;html=1;rounded=0;entryX=0.5;entryY=0;entryDx=0;entryDy=0;" parent="1" edge="1" target="B5OcWi0yJrwhyrI1Mu2D-3">
          <mxGeometry width="50" height="50" relative="1" as="geometry">
            <mxPoint x="279.5" y="150" as="sourcePoint" />
            <mxPoint x="280" y="170" as="targetPoint" />
          </mxGeometry>
        </mxCell>
        <mxCell id="B5OcWi0yJrwhyrI1Mu2D-16" value="" style="endArrow=classic;html=1;rounded=0;entryX=0.5;entryY=0;entryDx=0;entryDy=0;" parent="1" edge="1" target="4RBard7I10NnHjEr5Z3K-7">
          <mxGeometry width="50" height="50" relative="1" as="geometry">
            <mxPoint x="500" y="150" as="sourcePoint" />
            <mxPoint x="690" y="190" as="targetPoint" />
          </mxGeometry>
        </mxCell>
        <mxCell id="4RBard7I10NnHjEr5Z3K-1" value="" style="endArrow=classic;html=1;rounded=0;entryX=0.5;entryY=0;entryDx=0;entryDy=0;" edge="1" parent="1" target="4RBard7I10NnHjEr5Z3K-6">
          <mxGeometry width="50" height="50" relative="1" as="geometry">
            <mxPoint x="390" y="150" as="sourcePoint" />
            <mxPoint x="469.5" y="200" as="targetPoint" />
          </mxGeometry>
        </mxCell>
        <mxCell id="4RBard7I10NnHjEr5Z3K-2" value="" style="endArrow=classic;html=1;rounded=0;entryX=0.5;entryY=0;entryDx=0;entryDy=0;" edge="1" parent="1" target="4RBard7I10NnHjEr5Z3K-8">
          <mxGeometry width="50" height="50" relative="1" as="geometry">
            <mxPoint x="594.5" y="150" as="sourcePoint" />
            <mxPoint x="594.5" y="190" as="targetPoint" />
          </mxGeometry>
        </mxCell>
        <mxCell id="4RBard7I10NnHjEr5Z3K-3" value="" style="endArrow=classic;html=1;rounded=0;entryX=0.5;entryY=0;entryDx=0;entryDy=0;" edge="1" parent="1" target="4RBard7I10NnHjEr5Z3K-9">
          <mxGeometry width="50" height="50" relative="1" as="geometry">
            <mxPoint x="674.5" y="150" as="sourcePoint" />
            <mxPoint x="674.5" y="190" as="targetPoint" />
          </mxGeometry>
        </mxCell>
        <mxCell id="4RBard7I10NnHjEr5Z3K-6" value="Oscillatore&lt;div&gt;interno/esterno&lt;/div&gt;" style="rounded=0;whiteSpace=wrap;html=1;fillColor=#FFB570;strokeColor=#FFFFFF;" vertex="1" parent="1">
          <mxGeometry x="340" y="175" width="100" height="85" as="geometry" />
        </mxCell>
        <mxCell id="4RBard7I10NnHjEr5Z3K-7" value="Porte I/O&lt;div&gt;e/o&lt;/div&gt;&lt;div&gt;GPIO&lt;/div&gt;&lt;div&gt;configurabili&lt;/div&gt;" style="rounded=0;whiteSpace=wrap;html=1;fillColor=#E1D5E7;strokeColor=#FFFFFF;" vertex="1" parent="1">
          <mxGeometry x="450" y="175" width="100" height="85" as="geometry" />
        </mxCell>
        <mxCell id="4RBard7I10NnHjEr5Z3K-8" value="Gestione&lt;div&gt;Interrupt&lt;/div&gt;" style="rounded=0;whiteSpace=wrap;html=1;fillColor=#EA6B66;strokeColor=#FFFFFF;" vertex="1" parent="1">
          <mxGeometry x="560" y="175" width="70" height="85" as="geometry" />
        </mxCell>
        <mxCell id="4RBard7I10NnHjEr5Z3K-9" value="Controller&lt;div&gt;DMA&lt;/div&gt;" style="rounded=0;whiteSpace=wrap;html=1;fillColor=#9AC7BF;strokeColor=#FFFFFF;" vertex="1" parent="1">
          <mxGeometry x="640" y="175" width="70" height="85" as="geometry" />
        </mxCell>
        <mxCell id="4RBard7I10NnHjEr5Z3K-11" value="" style="endArrow=none;html=1;rounded=0;" edge="1" parent="1">
          <mxGeometry width="50" height="50" relative="1" as="geometry">
            <mxPoint x="290" y="270" as="sourcePoint" />
            <mxPoint x="740" y="150" as="targetPoint" />
            <Array as="points">
              <mxPoint x="740" y="270" />
            </Array>
          </mxGeometry>
        </mxCell>
        <mxCell id="4RBard7I10NnHjEr5Z3K-12" value="" style="endArrow=classic;html=1;rounded=0;entryX=0.5;entryY=0;entryDx=0;entryDy=0;" edge="1" parent="1" target="4RBard7I10NnHjEr5Z3K-13">
          <mxGeometry width="50" height="50" relative="1" as="geometry">
            <mxPoint x="290" y="270" as="sourcePoint" />
            <mxPoint x="290" y="300" as="targetPoint" />
          </mxGeometry>
        </mxCell>
        <mxCell id="4RBard7I10NnHjEr5Z3K-13" value="Moduli aggiuntivi:&lt;div&gt;&lt;ul&gt;&lt;li&gt;Contatori e timer;&lt;/li&gt;&lt;li&gt;Moduli di comunicazione: USART, I&lt;sup&gt;2&lt;/sup&gt;C, SPI, USB, Ethernet, IrDA, CAN, Bluethoot, WI-FI, Zigbee&lt;/li&gt;&lt;li&gt;Interfacce analogiche e a tecnologia mista: ADC, DAC, PWM, comparatori analogici.&lt;/li&gt;&lt;li&gt;Interfacce di visualizzazione e controllo: LCD, touch sensor.&lt;/li&gt;&lt;/ul&gt;&lt;/div&gt;" style="rounded=0;whiteSpace=wrap;html=1;fillColor=#E6E6E6;strokeColor=#FFFFFF;align=left;" vertex="1" parent="1">
          <mxGeometry x="170" y="300" width="240" height="190" as="geometry" />
        </mxCell>
      </root>
    </mxGraphModel>
  </diagram>
</mxfile>
